<?xml version="1.0" encoding="utf-8"?>
<!-- Generator: Adobe Illustrator 26.3.1, SVG Export Plug-In . SVG Version: 6.00 Build 0)  -->
<svg version="1.1" id="레이어_1" xmlns="http://www.w3.org/2000/svg" xmlns:xlink="http://www.w3.org/1999/xlink" x="0px"
	 y="0px" viewBox="0 0 1706.23 811.05" style="enable-background:new 0 0 1706.23 811.05;" xml:space="preserve">
<style type="text/css">
	.st0{fill:url(#SVGID_1_);}
	.st1{fill:none;stroke:#FFFFFF;stroke-width:3;stroke-miterlimit:10;}
	.st2{fill:url(#SVGID_00000173120653996622354830000004452698987954527666_);}
	.st3{fill:url(#SVGID_00000014618064537322890780000005912379873667081895_);}
	.st4{fill:none;stroke:#FFFFFF;stroke-width:2.1547;stroke-miterlimit:10;}
	.st5{fill:url(#SVGID_00000150810952053024829960000014406721713407399830_);}
	.st6{fill:none;stroke:#7795C4;stroke-width:1.4127;stroke-miterlimit:10;}
	.st7{fill:none;stroke:#7795C4;stroke-width:0.7063;stroke-miterlimit:10;}
	.st8{fill:#7795C4;}
</style>
<g>
	<g>
		
			<linearGradient id="SVGID_1_" gradientUnits="userSpaceOnUse" x1="-8470.4258" y1="-7595.3022" x2="-8470.4258" y2="-7743.4531" gradientTransform="matrix(-1 0 0 -1 -7617.6714 -7583.1572)">
			<stop  offset="0" style="stop-color:#738FBB"/>
			<stop  offset="0.1679" style="stop-color:#788BB9;stop-opacity:0.8321"/>
			<stop  offset="0.3767" style="stop-color:#8881B4;stop-opacity:0.6233"/>
			<stop  offset="0.607" style="stop-color:#A16FAC;stop-opacity:0.393"/>
			<stop  offset="0.8512" style="stop-color:#C457A1;stop-opacity:0.1488"/>
			<stop  offset="1" style="stop-color:#DD4599;stop-opacity:0"/>
		</linearGradient>
		<polygon class="st0" points="0,0.13 1705.51,0.13 1587.75,164.77 117.85,164.77 		"/>
		<line class="st1" x1="1538.65" y1="164.76" x2="1648.62" y2="0"/>
		<line class="st1" x1="1487.91" y1="164.76" x2="1589.75" y2="0"/>
		<line class="st1" x1="1437.19" y1="164.74" x2="1530.87" y2="0"/>
		<line class="st1" x1="1386.44" y1="164.76" x2="1471.99" y2="0"/>
		<line class="st1" x1="1335.7" y1="164.76" x2="1413.12" y2="0"/>
		<line class="st1" x1="1284.96" y1="164.76" x2="1354.24" y2="0"/>
		<line class="st1" x1="1234.23" y1="164.76" x2="1295.37" y2="0"/>
		<line class="st1" x1="1183.49" y1="164.76" x2="1236.49" y2="0"/>
		<line class="st1" x1="1132.75" y1="164.76" x2="1177.61" y2="0"/>
		<line class="st1" x1="1082.01" y1="164.76" x2="1118.74" y2="0"/>
		<line class="st1" x1="1031.28" y1="164.76" x2="1059.86" y2="0"/>
		<line class="st1" x1="980.54" y1="164.76" x2="1000.99" y2="0"/>
		<line class="st1" x1="929.8" y1="164.76" x2="942.11" y2="0"/>
		<line class="st1" x1="97.11" y1="135.38" x2="1609.32" y2="135.38"/>
		<line class="st1" x1="75.01" y1="104.51" x2="1631.42" y2="104.51"/>
		<line class="st1" x1="51.59" y1="71.77" x2="1654.85" y2="71.77"/>
		<line class="st1" x1="26.71" y1="37" x2="1679.74" y2="37"/>
		<line class="st1" x1="0.24" y1="0" x2="1706.23" y2="0"/>
		<line class="st1" x1="879.06" y1="164.76" x2="883.23" y2="0"/>
		<line class="st1" x1="828.33" y1="164.76" x2="824.36" y2="0"/>
		<line class="st1" x1="777.59" y1="164.76" x2="765.48" y2="0"/>
		<line class="st1" x1="726.85" y1="164.76" x2="706.61" y2="0"/>
		<line class="st1" x1="676.11" y1="164.76" x2="647.73" y2="0"/>
		<line class="st1" x1="625.38" y1="164.76" x2="588.85" y2="0"/>
		<line class="st1" x1="574.64" y1="164.76" x2="529.98" y2="0"/>
		<line class="st1" x1="523.9" y1="164.76" x2="471.1" y2="0"/>
		<line class="st1" x1="473.16" y1="164.76" x2="412.23" y2="0"/>
		<line class="st1" x1="422.43" y1="164.76" x2="353.35" y2="0"/>
		<line class="st1" x1="371.69" y1="164.76" x2="294.47" y2="0"/>
		<line class="st1" x1="320.95" y1="164.76" x2="235.6" y2="0"/>
		<line class="st1" x1="270.22" y1="164.76" x2="176.72" y2="0"/>
		<line class="st1" x1="219.48" y1="164.76" x2="117.85" y2="0"/>
		<line class="st1" x1="168.74" y1="164.76" x2="58.97" y2="0"/>
	</g>
	<g>
		
			<linearGradient id="SVGID_00000065771687361591340660000011502014312813427346_" gradientUnits="userSpaceOnUse" x1="-8470.4258" y1="-693.7224" x2="-8470.4258" y2="-841.873" gradientTransform="matrix(-1 0 0 1 -7617.6714 1410.0908)">
			<stop  offset="0" style="stop-color:#738FBB"/>
			<stop  offset="0.1679" style="stop-color:#788BB9;stop-opacity:0.8321"/>
			<stop  offset="0.3767" style="stop-color:#8881B4;stop-opacity:0.6233"/>
			<stop  offset="0.607" style="stop-color:#A16FAC;stop-opacity:0.393"/>
			<stop  offset="0.8512" style="stop-color:#C457A1;stop-opacity:0.1488"/>
			<stop  offset="1" style="stop-color:#DD4599;stop-opacity:0"/>
		</linearGradient>
		<polygon style="fill:url(#SVGID_00000065771687361591340660000011502014312813427346_);" points="0,728.38 1705.51,728.38 
			1587.75,563.74 117.85,563.74 		"/>
		<line class="st1" x1="1538.65" y1="563.75" x2="1648.62" y2="728.51"/>
		<line class="st1" x1="1487.91" y1="563.75" x2="1589.75" y2="728.51"/>
		<line class="st1" x1="1437.19" y1="563.77" x2="1530.87" y2="728.51"/>
		<line class="st1" x1="1386.44" y1="563.75" x2="1471.99" y2="728.51"/>
		<line class="st1" x1="1335.7" y1="563.75" x2="1413.12" y2="728.51"/>
		<line class="st1" x1="1284.96" y1="563.75" x2="1354.24" y2="728.51"/>
		<line class="st1" x1="1234.23" y1="563.75" x2="1295.37" y2="728.51"/>
		<line class="st1" x1="1183.49" y1="563.75" x2="1236.49" y2="728.51"/>
		<line class="st1" x1="1132.75" y1="563.75" x2="1177.61" y2="728.51"/>
		<line class="st1" x1="1082.01" y1="563.75" x2="1118.74" y2="728.51"/>
		<line class="st1" x1="1031.28" y1="563.75" x2="1059.86" y2="728.51"/>
		<line class="st1" x1="980.54" y1="563.75" x2="1000.99" y2="728.51"/>
		<line class="st1" x1="929.8" y1="563.75" x2="942.11" y2="728.51"/>
		<line class="st1" x1="97.11" y1="593.13" x2="1609.32" y2="593.13"/>
		<line class="st1" x1="75.01" y1="624.01" x2="1631.42" y2="624.01"/>
		<line class="st1" x1="51.59" y1="656.74" x2="1654.85" y2="656.74"/>
		<line class="st1" x1="26.71" y1="691.52" x2="1679.74" y2="691.52"/>
		<line class="st1" x1="0.24" y1="728.51" x2="1706.23" y2="728.51"/>
		<line class="st1" x1="879.06" y1="563.75" x2="883.23" y2="728.51"/>
		<line class="st1" x1="828.33" y1="563.75" x2="824.36" y2="728.51"/>
		<line class="st1" x1="777.59" y1="563.75" x2="765.48" y2="728.51"/>
		<line class="st1" x1="726.85" y1="563.75" x2="706.61" y2="728.51"/>
		<line class="st1" x1="676.11" y1="563.75" x2="647.73" y2="728.51"/>
		<line class="st1" x1="625.38" y1="563.75" x2="588.85" y2="728.51"/>
		<line class="st1" x1="574.64" y1="563.75" x2="529.98" y2="728.51"/>
		<line class="st1" x1="523.9" y1="563.75" x2="471.1" y2="728.51"/>
		<line class="st1" x1="473.16" y1="563.75" x2="412.23" y2="728.51"/>
		<line class="st1" x1="422.43" y1="563.75" x2="353.35" y2="728.51"/>
		<line class="st1" x1="371.69" y1="563.75" x2="294.47" y2="728.51"/>
		<line class="st1" x1="320.95" y1="563.75" x2="235.6" y2="728.51"/>
		<line class="st1" x1="270.22" y1="563.75" x2="176.72" y2="728.51"/>
		<line class="st1" x1="219.48" y1="563.75" x2="117.85" y2="728.51"/>
		<line class="st1" x1="168.74" y1="563.75" x2="58.97" y2="728.51"/>
	</g>
	<g>
		
			<linearGradient id="SVGID_00000070094190400758263660000006945994708518867864_" gradientUnits="userSpaceOnUse" x1="-8470.4258" y1="-915.6423" x2="-8470.4258" y2="-992.0682" gradientTransform="matrix(-1 0 0 1 -7617.6714 1410.0908)">
			<stop  offset="0" style="stop-color:#738FBB"/>
			<stop  offset="0.1749" style="stop-color:#788BB9;stop-opacity:0.8373"/>
			<stop  offset="0.3923" style="stop-color:#8881B4;stop-opacity:0.6352"/>
			<stop  offset="0.6322" style="stop-color:#A16FAC;stop-opacity:0.4121"/>
			<stop  offset="0.8866" style="stop-color:#C457A1;stop-opacity:0.1755"/>
			<stop  offset="1" style="stop-color:#D64A9B;stop-opacity:0.0701"/>
		</linearGradient>
		<polygon style="fill:url(#SVGID_00000070094190400758263660000006945994708518867864_);" points="0,500.65 1705.51,500.65 
			1587.75,415.71 117.85,415.71 		"/>
		<line class="st4" x1="1538.65" y1="415.72" x2="1648.62" y2="500.71"/>
		<line class="st4" x1="1487.91" y1="415.72" x2="1589.75" y2="500.71"/>
		<line class="st4" x1="1437.19" y1="415.73" x2="1530.87" y2="500.71"/>
		<line class="st4" x1="1386.44" y1="415.72" x2="1471.99" y2="500.71"/>
		<line class="st4" x1="1335.7" y1="415.72" x2="1413.12" y2="500.71"/>
		<line class="st4" x1="1284.96" y1="415.72" x2="1354.24" y2="500.71"/>
		<line class="st4" x1="1234.23" y1="415.72" x2="1295.37" y2="500.71"/>
		<line class="st4" x1="1183.49" y1="415.72" x2="1236.49" y2="500.71"/>
		<line class="st4" x1="1132.75" y1="415.72" x2="1177.61" y2="500.71"/>
		<line class="st4" x1="1082.01" y1="415.72" x2="1118.74" y2="500.71"/>
		<line class="st4" x1="1031.28" y1="415.72" x2="1059.86" y2="500.71"/>
		<line class="st4" x1="980.54" y1="415.72" x2="1000.99" y2="500.71"/>
		<line class="st4" x1="929.8" y1="415.72" x2="942.11" y2="500.71"/>
		<line class="st4" x1="97.11" y1="430.87" x2="1609.32" y2="430.87"/>
		<line class="st4" x1="75.01" y1="446.8" x2="1631.42" y2="446.8"/>
		<line class="st4" x1="51.59" y1="463.69" x2="1654.85" y2="463.69"/>
		<line class="st4" x1="26.71" y1="481.63" x2="1679.74" y2="481.63"/>
		<line class="st4" x1="0.24" y1="500.71" x2="1706.23" y2="500.71"/>
		<line class="st4" x1="879.06" y1="415.72" x2="883.23" y2="500.71"/>
		<line class="st4" x1="828.33" y1="415.72" x2="824.36" y2="500.71"/>
		<line class="st4" x1="777.59" y1="415.72" x2="765.48" y2="500.71"/>
		<line class="st4" x1="726.85" y1="415.72" x2="706.61" y2="500.71"/>
		<line class="st4" x1="676.11" y1="415.72" x2="647.73" y2="500.71"/>
		<line class="st4" x1="625.38" y1="415.72" x2="588.85" y2="500.71"/>
		<line class="st4" x1="574.64" y1="415.72" x2="529.98" y2="500.71"/>
		<line class="st4" x1="523.9" y1="415.72" x2="471.1" y2="500.71"/>
		<line class="st4" x1="473.16" y1="415.72" x2="412.23" y2="500.71"/>
		<line class="st4" x1="422.43" y1="415.72" x2="353.35" y2="500.71"/>
		<line class="st4" x1="371.69" y1="415.72" x2="294.47" y2="500.71"/>
		<line class="st4" x1="320.95" y1="415.72" x2="235.6" y2="500.71"/>
		<line class="st4" x1="270.22" y1="415.72" x2="176.72" y2="500.71"/>
		<line class="st4" x1="219.48" y1="415.72" x2="117.85" y2="500.71"/>
		<line class="st4" x1="168.74" y1="415.72" x2="58.97" y2="500.71"/>
	</g>
	<g>
		
			<linearGradient id="SVGID_00000045582890836260962110000017115525938411497656_" gradientUnits="userSpaceOnUse" x1="-8470.4258" y1="-8808.2031" x2="-8470.4258" y2="-8884.6289" gradientTransform="matrix(-1 0 0 -1 -7617.6714 -8574.1387)">
			<stop  offset="0" style="stop-color:#738FBB"/>
			<stop  offset="0.1679" style="stop-color:#788BB9;stop-opacity:0.8321"/>
			<stop  offset="0.3767" style="stop-color:#8881B4;stop-opacity:0.6233"/>
			<stop  offset="0.607" style="stop-color:#A16FAC;stop-opacity:0.393"/>
			<stop  offset="0.8512" style="stop-color:#C457A1;stop-opacity:0.1488"/>
			<stop  offset="1" style="stop-color:#DD4599;stop-opacity:0"/>
		</linearGradient>
		<polygon style="fill:url(#SVGID_00000045582890836260962110000017115525938411497656_);" points="0,227.87 1705.51,227.87 
			1587.75,312.8 117.85,312.8 		"/>
		<line class="st4" x1="1538.65" y1="312.79" x2="1648.62" y2="227.8"/>
		<line class="st4" x1="1487.91" y1="312.79" x2="1589.75" y2="227.8"/>
		<line class="st4" x1="1437.19" y1="312.79" x2="1530.87" y2="227.8"/>
		<line class="st4" x1="1386.44" y1="312.79" x2="1471.99" y2="227.8"/>
		<line class="st4" x1="1335.7" y1="312.79" x2="1413.12" y2="227.8"/>
		<line class="st4" x1="1284.96" y1="312.79" x2="1354.24" y2="227.8"/>
		<line class="st4" x1="1234.23" y1="312.79" x2="1295.37" y2="227.8"/>
		<line class="st4" x1="1183.49" y1="312.79" x2="1236.49" y2="227.8"/>
		<line class="st4" x1="1132.75" y1="312.79" x2="1177.61" y2="227.8"/>
		<line class="st4" x1="1082.01" y1="312.79" x2="1118.74" y2="227.8"/>
		<line class="st4" x1="1031.28" y1="312.79" x2="1059.86" y2="227.8"/>
		<line class="st4" x1="980.54" y1="312.79" x2="1000.99" y2="227.8"/>
		<line class="st4" x1="929.8" y1="312.79" x2="942.11" y2="227.8"/>
		<line class="st4" x1="97.11" y1="297.64" x2="1609.32" y2="297.64"/>
		<line class="st4" x1="75.01" y1="281.71" x2="1631.42" y2="281.71"/>
		<line class="st4" x1="51.59" y1="264.82" x2="1654.85" y2="264.82"/>
		<line class="st4" x1="26.71" y1="246.89" x2="1679.74" y2="246.89"/>
		<line class="st4" x1="0.24" y1="227.8" x2="1706.23" y2="227.8"/>
		<line class="st4" x1="879.06" y1="312.79" x2="883.23" y2="227.8"/>
		<line class="st4" x1="828.33" y1="312.79" x2="824.36" y2="227.8"/>
		<line class="st4" x1="777.59" y1="312.79" x2="765.48" y2="227.8"/>
		<line class="st4" x1="726.85" y1="312.79" x2="706.61" y2="227.8"/>
		<line class="st4" x1="676.11" y1="312.79" x2="647.73" y2="227.8"/>
		<line class="st4" x1="625.38" y1="312.79" x2="588.85" y2="227.8"/>
		<line class="st4" x1="574.64" y1="312.79" x2="529.98" y2="227.8"/>
		<line class="st4" x1="523.9" y1="312.79" x2="471.1" y2="227.8"/>
		<line class="st4" x1="473.16" y1="312.79" x2="412.23" y2="227.8"/>
		<line class="st4" x1="422.43" y1="312.79" x2="353.35" y2="227.8"/>
		<line class="st4" x1="371.69" y1="312.79" x2="294.47" y2="227.8"/>
		<line class="st4" x1="320.95" y1="312.79" x2="235.6" y2="227.8"/>
		<line class="st4" x1="270.22" y1="312.79" x2="176.72" y2="227.8"/>
		<line class="st4" x1="219.48" y1="312.79" x2="117.85" y2="227.8"/>
		<line class="st4" x1="168.74" y1="312.79" x2="58.97" y2="227.8"/>
	</g>
	<g>
		<g>
			<polyline class="st6" points="1194.8,799.75 1194.71,811.05 516.28,811.05 516.36,799.75 			"/>
			<line class="st6" x1="1133.12" y1="799.75" x2="1133.04" y2="811.05"/>
			<line class="st6" x1="1071.44" y1="799.75" x2="1071.36" y2="811.05"/>
			<line class="st6" x1="1009.77" y1="799.75" x2="1009.68" y2="811.05"/>
			<line class="st6" x1="948.09" y1="799.75" x2="948.01" y2="811.05"/>
			<line class="st6" x1="886.42" y1="799.75" x2="886.33" y2="811.05"/>
			<line class="st6" x1="824.74" y1="799.75" x2="824.66" y2="811.05"/>
			<line class="st6" x1="763.07" y1="799.75" x2="762.98" y2="811.05"/>
			<line class="st6" x1="701.39" y1="799.75" x2="701.31" y2="811.05"/>
			<line class="st6" x1="639.72" y1="799.75" x2="639.63" y2="811.05"/>
			<line class="st6" x1="578.04" y1="799.75" x2="577.96" y2="811.05"/>
			<g>
				<line class="st7" x1="525.18" y1="803.28" x2="525.09" y2="811.05"/>
				<line class="st7" x1="533.99" y1="803.28" x2="533.9" y2="811.05"/>
				<line class="st7" x1="542.8" y1="803.28" x2="542.71" y2="811.05"/>
				<line class="st7" x1="551.61" y1="803.28" x2="551.52" y2="811.05"/>
				<line class="st7" x1="560.42" y1="803.28" x2="560.33" y2="811.05"/>
				<line class="st7" x1="569.23" y1="803.28" x2="569.14" y2="811.05"/>
			</g>
			<g>
				<line class="st7" x1="586.87" y1="803.28" x2="586.79" y2="811.05"/>
				<line class="st7" x1="595.68" y1="803.28" x2="595.6" y2="811.05"/>
				<line class="st7" x1="604.49" y1="803.28" x2="604.41" y2="811.05"/>
				<line class="st7" x1="613.31" y1="803.28" x2="613.22" y2="811.05"/>
				<line class="st7" x1="622.12" y1="803.28" x2="622.03" y2="811.05"/>
				<line class="st7" x1="630.93" y1="803.28" x2="630.84" y2="811.05"/>
			</g>
			<g>
				<line class="st7" x1="648.57" y1="803.28" x2="648.49" y2="811.05"/>
				<line class="st7" x1="657.38" y1="803.28" x2="657.3" y2="811.05"/>
				<line class="st7" x1="666.19" y1="803.28" x2="666.11" y2="811.05"/>
				<line class="st7" x1="675" y1="803.28" x2="674.92" y2="811.05"/>
				<line class="st7" x1="683.81" y1="803.28" x2="683.73" y2="811.05"/>
				<line class="st7" x1="692.63" y1="803.28" x2="692.54" y2="811.05"/>
			</g>
			<g>
				<line class="st7" x1="710.27" y1="803.28" x2="710.18" y2="811.05"/>
				<line class="st7" x1="719.08" y1="803.28" x2="719" y2="811.05"/>
				<line class="st7" x1="727.89" y1="803.28" x2="727.81" y2="811.05"/>
				<line class="st7" x1="736.7" y1="803.28" x2="736.62" y2="811.05"/>
				<line class="st7" x1="745.51" y1="803.28" x2="745.43" y2="811.05"/>
				<line class="st7" x1="754.32" y1="803.28" x2="754.24" y2="811.05"/>
			</g>
			<g>
				<line class="st7" x1="771.97" y1="803.28" x2="771.88" y2="811.05"/>
				<line class="st7" x1="780.78" y1="803.28" x2="780.69" y2="811.05"/>
				<line class="st7" x1="789.59" y1="803.28" x2="789.5" y2="811.05"/>
				<line class="st7" x1="798.4" y1="803.28" x2="798.32" y2="811.05"/>
				<line class="st7" x1="807.21" y1="803.28" x2="807.13" y2="811.05"/>
				<line class="st7" x1="816.02" y1="803.28" x2="815.94" y2="811.05"/>
			</g>
			<g>
				<line class="st7" x1="833.67" y1="803.28" x2="833.58" y2="811.05"/>
				<line class="st7" x1="842.48" y1="803.28" x2="842.39" y2="811.05"/>
				<line class="st7" x1="851.29" y1="803.28" x2="851.2" y2="811.05"/>
				<line class="st7" x1="860.1" y1="803.28" x2="860.01" y2="811.05"/>
				<line class="st7" x1="868.91" y1="803.28" x2="868.82" y2="811.05"/>
				<line class="st7" x1="877.72" y1="803.28" x2="877.63" y2="811.05"/>
			</g>
			<g>
				<line class="st7" x1="895.36" y1="803.28" x2="895.28" y2="811.05"/>
				<line class="st7" x1="904.17" y1="803.28" x2="904.09" y2="811.05"/>
				<line class="st7" x1="912.99" y1="803.28" x2="912.9" y2="811.05"/>
				<line class="st7" x1="921.8" y1="803.28" x2="921.71" y2="811.05"/>
				<line class="st7" x1="930.61" y1="803.28" x2="930.52" y2="811.05"/>
				<line class="st7" x1="939.42" y1="803.28" x2="939.33" y2="811.05"/>
			</g>
			<g>
				<line class="st7" x1="957.06" y1="803.28" x2="956.98" y2="811.05"/>
				<line class="st7" x1="965.87" y1="803.28" x2="965.79" y2="811.05"/>
				<line class="st7" x1="974.68" y1="803.28" x2="974.6" y2="811.05"/>
				<line class="st7" x1="983.49" y1="803.28" x2="983.41" y2="811.05"/>
				<line class="st7" x1="992.3" y1="803.28" x2="992.22" y2="811.05"/>
				<line class="st7" x1="1001.12" y1="803.28" x2="1001.03" y2="811.05"/>
			</g>
			<g>
				<line class="st7" x1="1018.76" y1="803.28" x2="1018.67" y2="811.05"/>
				<line class="st7" x1="1027.57" y1="803.28" x2="1027.49" y2="811.05"/>
				<line class="st7" x1="1036.38" y1="803.28" x2="1036.3" y2="811.05"/>
				<line class="st7" x1="1045.19" y1="803.28" x2="1045.11" y2="811.05"/>
				<line class="st7" x1="1054" y1="803.28" x2="1053.92" y2="811.05"/>
				<line class="st7" x1="1062.81" y1="803.28" x2="1062.73" y2="811.05"/>
			</g>
			<g>
				<line class="st7" x1="1080.46" y1="803.28" x2="1080.37" y2="811.05"/>
				<line class="st7" x1="1089.27" y1="803.28" x2="1089.18" y2="811.05"/>
				<line class="st7" x1="1098.08" y1="803.28" x2="1097.99" y2="811.05"/>
				<line class="st7" x1="1106.89" y1="803.28" x2="1106.81" y2="811.05"/>
				<line class="st7" x1="1115.7" y1="803.28" x2="1115.62" y2="811.05"/>
				<line class="st7" x1="1124.51" y1="803.28" x2="1124.43" y2="811.05"/>
			</g>
			<g>
				<line class="st7" x1="1142.16" y1="803.28" x2="1142.07" y2="811.05"/>
				<line class="st7" x1="1150.97" y1="803.28" x2="1150.88" y2="811.05"/>
				<line class="st7" x1="1159.78" y1="803.28" x2="1159.69" y2="811.05"/>
				<line class="st7" x1="1168.59" y1="803.28" x2="1168.5" y2="811.05"/>
				<line class="st7" x1="1177.4" y1="803.28" x2="1177.31" y2="811.05"/>
				<line class="st7" x1="1186.21" y1="803.28" x2="1186.12" y2="811.05"/>
			</g>
		</g>
		<polygon class="st8" points="516.28,796.28 521.22,787.71 511.34,787.71 		"/>
		<polygon class="st8" points="945.42,796.28 950.36,787.71 940.47,787.71 		"/>
	</g>
</g>
</svg>
