<?xml version="1.0" encoding="utf-8"?>
<!-- Generator: Adobe Illustrator 26.3.1, SVG Export Plug-In . SVG Version: 6.00 Build 0)  -->
<svg version="1.1" id="레이어_1" xmlns="http://www.w3.org/2000/svg" xmlns:xlink="http://www.w3.org/1999/xlink" x="0px"
	 y="0px" viewBox="0 0 1707.22 866.8" style="enable-background:new 0 0 1707.22 866.8;" xml:space="preserve">
<style type="text/css">
	.st0{fill:none;stroke:#7795C4;stroke-width:7.5462;stroke-miterlimit:10;}
	.st1{fill:none;stroke:#D4E3F2;stroke-width:1.0498;stroke-miterlimit:10;}
	.st2{fill:#D4E3F2;}
</style>
<polyline class="st0" points="1672.78,3.92 1703.5,3.92 1703.5,34.64 "/>
<polyline class="st0" points="34.54,863.12 3.81,863.12 3.81,832.4 "/>
<g>
	<rect x="24.49" y="50.72" class="st1" width="1658.14" height="792.73"/>
	<line class="st1" x1="79.89" y1="50.78" x2="79.89" y2="844"/>
	<line class="st1" x1="137.12" y1="50.78" x2="137.12" y2="844"/>
	<line class="st1" x1="194.35" y1="50.78" x2="194.35" y2="844"/>
	<line class="st1" x1="251.59" y1="50.78" x2="251.59" y2="844"/>
	<line class="st1" x1="308.82" y1="50.78" x2="308.82" y2="844"/>
	<line class="st1" x1="366.06" y1="50.78" x2="366.06" y2="844"/>
	<line class="st1" x1="423.29" y1="50.78" x2="423.29" y2="844"/>
	<line class="st1" x1="480.53" y1="50.78" x2="480.53" y2="844"/>
	<line class="st1" x1="537.76" y1="50.78" x2="537.76" y2="844"/>
	<line class="st1" x1="595" y1="50.78" x2="595" y2="844"/>
	<line class="st1" x1="652.23" y1="50.78" x2="652.23" y2="844"/>
	<line class="st1" x1="709.46" y1="50.78" x2="709.46" y2="844"/>
	<line class="st1" x1="766.7" y1="50.78" x2="766.7" y2="844"/>
	<line class="st1" x1="1682.31" y1="107.82" x2="23.89" y2="107.82"/>
	<line class="st1" x1="1682.31" y1="164.49" x2="23.89" y2="164.49"/>
	<line class="st1" x1="1682.31" y1="221.16" x2="23.89" y2="221.16"/>
	<line class="st1" x1="1682.31" y1="277.84" x2="23.89" y2="277.84"/>
	<line class="st1" x1="1682.31" y1="334.51" x2="23.89" y2="334.51"/>
	<line class="st1" x1="1682.31" y1="391.18" x2="23.89" y2="391.18"/>
	<line class="st1" x1="1682.31" y1="447.85" x2="23.89" y2="447.85"/>
	<line class="st1" x1="1682.31" y1="504.52" x2="23.89" y2="504.52"/>
	<line class="st1" x1="1682.31" y1="561.19" x2="23.89" y2="561.19"/>
	<line class="st1" x1="1682.31" y1="617.86" x2="23.89" y2="617.86"/>
	<line class="st1" x1="1682.31" y1="674.54" x2="23.89" y2="674.54"/>
	<line class="st1" x1="1682.31" y1="731.21" x2="23.89" y2="731.21"/>
	<line class="st1" x1="1682.31" y1="787.88" x2="23.89" y2="787.88"/>
	<line class="st1" x1="823.93" y1="50.78" x2="823.93" y2="844"/>
	<line class="st1" x1="881.17" y1="50.78" x2="881.17" y2="844"/>
	<line class="st1" x1="938.4" y1="50.78" x2="938.4" y2="844"/>
	<line class="st1" x1="995.64" y1="50.78" x2="995.64" y2="844"/>
	<line class="st1" x1="1052.87" y1="50.78" x2="1052.87" y2="844"/>
	<line class="st1" x1="1110.1" y1="50.78" x2="1110.1" y2="844"/>
	<line class="st1" x1="1167.34" y1="50.78" x2="1167.34" y2="844"/>
	<line class="st1" x1="1224.57" y1="50.78" x2="1224.57" y2="844"/>
	<line class="st1" x1="1281.81" y1="50.78" x2="1281.81" y2="844"/>
	<line class="st1" x1="1339.04" y1="50.78" x2="1339.04" y2="844"/>
	<line class="st1" x1="1396.28" y1="50.78" x2="1396.28" y2="844"/>
	<line class="st1" x1="1453.51" y1="50.78" x2="1453.51" y2="844"/>
	<line class="st1" x1="1510.75" y1="50.78" x2="1510.75" y2="844"/>
	<line class="st1" x1="1567.98" y1="50.78" x2="1567.98" y2="844"/>
	<line class="st1" x1="1625.21" y1="50.78" x2="1625.21" y2="844"/>
	<line class="st1" x1="1682.45" y1="50.78" x2="1682.45" y2="828.13"/>
</g>
<polygon class="st2" points="204.8,19.83 23.99,19.83 23.99,50.78 242.97,50.78 "/>
<polygon class="st2" points="239.6,19.83 218.92,19.83 257.03,50.78 277.77,50.78 "/>
<polygon class="st2" points="274.23,19.83 253.55,19.83 291.66,50.78 312.4,50.78 "/>
</svg>
