<?xml version="1.0" encoding="utf-8"?>
<!-- Generator: Adobe Illustrator 26.3.1, SVG Export Plug-In . SVG Version: 6.00 Build 0)  -->
<svg version="1.1" id="레이어_1" xmlns="http://www.w3.org/2000/svg" xmlns:xlink="http://www.w3.org/1999/xlink" x="0px"
	 y="0px" viewBox="0 0 1707.57 323.88" style="enable-background:new 0 0 1707.57 323.88;" xml:space="preserve">
<style type="text/css">
	.st0{fill:none;stroke:#D4E3F2;stroke-width:1.0636;stroke-miterlimit:10;}
	.st1{fill:none;stroke:#6F8AB3;stroke-width:1.7726;stroke-miterlimit:10;}
	.st2{fill:#6F8AB3;}
	.st3{fill:#FFFFFF;}
	.st4{fill:#5279BC;}
	.st5{fill:#D3E0F0;}
</style>
<g>
	<line class="st0" x1="57.95" y1="31.32" x2="57.95" y2="323.22"/>
	<line class="st0" x1="116.83" y1="31.32" x2="116.83" y2="323.22"/>
	<line class="st0" x1="175.7" y1="31.36" x2="175.7" y2="323.22"/>
	<line class="st0" x1="234.58" y1="31.32" x2="234.58" y2="323.22"/>
	<line class="st0" x1="293.46" y1="31.32" x2="293.46" y2="323.22"/>
	<line class="st0" x1="352.33" y1="31.32" x2="352.33" y2="323.22"/>
	<line class="st0" x1="411.21" y1="31.32" x2="411.21" y2="323.22"/>
	<line class="st0" x1="470.08" y1="31.32" x2="470.08" y2="323.22"/>
	<line class="st0" x1="528.96" y1="31.32" x2="528.96" y2="323.22"/>
	<line class="st0" x1="587.84" y1="31.32" x2="587.84" y2="323.22"/>
	<line class="st0" x1="646.71" y1="31.32" x2="646.71" y2="323.22"/>
	<line class="st0" x1="705.59" y1="31.32" x2="705.59" y2="323.22"/>
	<line class="st0" x1="764.46" y1="31.32" x2="764.46" y2="323.22"/>
	<line class="st0" x1="1706.34" y1="90.04" x2="0.35" y2="90.04"/>
	<line class="st0" x1="1706.34" y1="148.33" x2="0.35" y2="148.33"/>
	<line class="st0" x1="1706.34" y1="206.63" x2="0.35" y2="206.63"/>
	<line class="st0" x1="1706.34" y1="264.93" x2="0.35" y2="264.93"/>
	<line class="st0" x1="1706.34" y1="323.22" x2="0.35" y2="323.22"/>
	<line class="st0" x1="823.34" y1="31.32" x2="823.34" y2="323.22"/>
	<line class="st0" x1="882.22" y1="31.32" x2="882.22" y2="323.22"/>
	<line class="st0" x1="941.09" y1="31.32" x2="941.09" y2="323.22"/>
	<line class="st0" x1="999.97" y1="31.32" x2="999.97" y2="323.22"/>
	<line class="st0" x1="1058.84" y1="31.32" x2="1058.84" y2="323.22"/>
	<line class="st0" x1="1117.72" y1="31.32" x2="1117.72" y2="323.22"/>
	<line class="st0" x1="1176.6" y1="31.32" x2="1176.6" y2="323.22"/>
	<line class="st0" x1="1235.47" y1="31.32" x2="1235.47" y2="323.22"/>
	<line class="st0" x1="1294.35" y1="31.32" x2="1294.35" y2="323.22"/>
	<line class="st0" x1="1353.22" y1="31.32" x2="1353.22" y2="323.22"/>
	<line class="st0" x1="1412.1" y1="31.32" x2="1412.1" y2="323.22"/>
	<line class="st0" x1="1470.98" y1="31.32" x2="1470.98" y2="323.22"/>
	<line class="st0" x1="1529.85" y1="31.32" x2="1529.85" y2="323.22"/>
	<line class="st0" x1="1588.73" y1="31.32" x2="1588.73" y2="323.22"/>
	<line class="st0" x1="1647.6" y1="31.32" x2="1647.6" y2="323.22"/>
	<path class="st0" d="M1745.61,321.9"/>
	<path class="st0" d="M1745.61,35.88"/>
	<rect x="0.97" y="31.3" class="st1" width="1705.7" height="291.72"/>
</g>
<polygon class="st2" points="372.55,0 0.07,0 0.07,32.02 412.05,32.02 "/>
<circle class="st3" cx="32.32" cy="17.38" r="5.93"/>
<g>
	<path class="st3" d="M62.49,21.12c-0.69,0-1.32-0.08-1.9-0.25C60,20.7,59.5,20.44,59.07,20.1c-0.43-0.34-0.77-0.77-1.01-1.28
		c-0.24-0.52-0.36-1.12-0.36-1.81c0-0.59,0.13-1.13,0.38-1.62s0.61-0.93,1.06-1.3c0.46-0.37,0.99-0.66,1.61-0.86
		c0.62-0.2,1.29-0.31,2.02-0.31c0.61,0,1.16,0.06,1.66,0.19c0.49,0.13,0.93,0.29,1.31,0.49s0.69,0.41,0.92,0.63l-1.17,1.3
		c-0.23-0.17-0.49-0.33-0.76-0.46s-0.58-0.24-0.91-0.33c-0.33-0.09-0.69-0.13-1.07-0.13c-0.43,0-0.83,0.06-1.19,0.18
		s-0.69,0.29-0.96,0.5c-0.28,0.22-0.49,0.47-0.64,0.76c-0.15,0.29-0.23,0.61-0.23,0.95c0,0.45,0.08,0.82,0.24,1.13
		c0.16,0.31,0.38,0.56,0.66,0.74c0.28,0.19,0.6,0.32,0.95,0.41c0.35,0.09,0.73,0.13,1.12,0.13c0.4,0,0.77-0.04,1.11-0.11
		c0.34-0.08,0.64-0.18,0.89-0.31c0.25-0.13,0.45-0.29,0.58-0.48c0.14-0.19,0.2-0.4,0.19-0.62v-0.21l0.26,0.48H62.6v-1.48h4.74
		c0.01,0.11,0.03,0.24,0.03,0.37s0.01,0.25,0.01,0.34c0,0.1,0,0.16,0,0.19c0,0.59-0.12,1.11-0.35,1.55c-0.23,0.45-0.57,0.81-1,1.1
		c-0.43,0.29-0.95,0.51-1.55,0.66C63.89,21.04,63.22,21.12,62.49,21.12z"/>
	<path class="st3" d="M71.1,21.01V15h1.72l0.08,2.25l-0.57,0.01c0.12-0.45,0.32-0.85,0.61-1.21c0.29-0.36,0.63-0.65,1.02-0.86
		c0.39-0.21,0.8-0.32,1.23-0.32c0.28,0,0.55,0.03,0.82,0.09c0.27,0.06,0.49,0.14,0.66,0.25l-0.49,1.94
		c-0.16-0.11-0.38-0.2-0.65-0.27s-0.55-0.1-0.81-0.1c-0.29,0-0.56,0.04-0.79,0.14s-0.42,0.21-0.58,0.36
		c-0.15,0.15-0.27,0.32-0.34,0.5c-0.08,0.18-0.11,0.37-0.11,0.55v2.67H71.1z"/>
	<path class="st3" d="M83.27,21.12c-0.84,0-1.57-0.13-2.2-0.4c-0.63-0.27-1.12-0.64-1.47-1.1c-0.35-0.47-0.52-1-0.52-1.58
		c0-0.49,0.11-0.93,0.32-1.32c0.21-0.39,0.5-0.72,0.87-0.99c0.37-0.27,0.79-0.48,1.27-0.63s0.98-0.22,1.51-0.22
		c0.54,0,1.03,0.07,1.49,0.22c0.46,0.15,0.86,0.35,1.2,0.62c0.34,0.27,0.61,0.59,0.8,0.96c0.19,0.37,0.28,0.78,0.26,1.23l-0.01,0.55
		h-6.37l-0.26-1.13h5.16l-0.19,0.26v-0.23c-0.03-0.2-0.14-0.38-0.33-0.54s-0.44-0.28-0.74-0.37c-0.3-0.09-0.62-0.14-0.98-0.14
		c-0.41,0-0.79,0.05-1.13,0.16s-0.63,0.27-0.84,0.5c-0.21,0.23-0.32,0.53-0.32,0.91c0,0.32,0.12,0.62,0.35,0.88
		c0.23,0.26,0.55,0.47,0.97,0.62c0.42,0.15,0.91,0.23,1.48,0.23c0.57,0,1.04-0.06,1.39-0.19c0.35-0.12,0.62-0.23,0.79-0.32
		l0.77,1.16c-0.28,0.17-0.59,0.33-0.94,0.46c-0.35,0.13-0.72,0.23-1.11,0.3C84.09,21.09,83.69,21.12,83.27,21.12z"/>
	<path class="st3" d="M93.81,21.12c-0.84,0-1.57-0.13-2.2-0.4c-0.63-0.27-1.12-0.64-1.47-1.1c-0.35-0.47-0.52-1-0.52-1.58
		c0-0.49,0.11-0.93,0.32-1.32c0.21-0.39,0.5-0.72,0.87-0.99c0.37-0.27,0.79-0.48,1.27-0.63s0.98-0.22,1.51-0.22
		c0.54,0,1.03,0.07,1.49,0.22c0.46,0.15,0.86,0.35,1.2,0.62c0.34,0.27,0.61,0.59,0.8,0.96c0.19,0.37,0.28,0.78,0.26,1.23l-0.01,0.55
		h-6.37l-0.26-1.13h5.16l-0.19,0.26v-0.23c-0.03-0.2-0.14-0.38-0.33-0.54s-0.44-0.28-0.74-0.37c-0.3-0.09-0.62-0.14-0.98-0.14
		c-0.41,0-0.79,0.05-1.13,0.16s-0.63,0.27-0.84,0.5c-0.21,0.23-0.32,0.53-0.32,0.91c0,0.32,0.12,0.62,0.35,0.88
		c0.23,0.26,0.55,0.47,0.97,0.62c0.42,0.15,0.91,0.23,1.48,0.23c0.57,0,1.04-0.06,1.39-0.19c0.35-0.12,0.62-0.23,0.79-0.32
		l0.77,1.16c-0.28,0.17-0.59,0.33-0.94,0.46c-0.35,0.13-0.72,0.23-1.11,0.3C94.63,21.09,94.22,21.12,93.81,21.12z"/>
	<path class="st3" d="M101.24,15h1.71l0.07,1.68l-0.52,0.11c0.12-0.32,0.31-0.63,0.58-0.92c0.27-0.29,0.6-0.53,1.01-0.71
		c0.4-0.18,0.86-0.28,1.36-0.28c0.6,0,1.12,0.12,1.53,0.35c0.42,0.23,0.74,0.55,0.95,0.93c0.22,0.39,0.32,0.82,0.32,1.31v3.54h-1.81
		v-3.12c0-0.29-0.07-0.55-0.21-0.78c-0.14-0.22-0.33-0.4-0.57-0.52c-0.24-0.12-0.52-0.19-0.83-0.19c-0.29,0-0.54,0.05-0.76,0.15
		c-0.22,0.1-0.41,0.23-0.56,0.39c-0.15,0.15-0.27,0.32-0.35,0.5s-0.12,0.35-0.12,0.5v3.07h-0.91c-0.3,0-0.6,0-0.91,0V15z"/>
	<path class="st3" d="M112.92,12.63h1.78v4.04l-0.54,0.17c0.08-0.35,0.27-0.67,0.55-0.97c0.28-0.3,0.64-0.54,1.07-0.72
		c0.43-0.18,0.9-0.28,1.4-0.28c0.6,0,1.11,0.12,1.52,0.36c0.41,0.24,0.72,0.55,0.93,0.94c0.21,0.39,0.31,0.81,0.31,1.26v3.58h-1.81
		v-3.09c0-0.32-0.07-0.59-0.21-0.81c-0.14-0.23-0.33-0.4-0.57-0.53c-0.24-0.12-0.52-0.19-0.83-0.19c-0.26,0-0.51,0.05-0.72,0.14
		c-0.22,0.09-0.41,0.21-0.57,0.37c-0.16,0.15-0.28,0.33-0.37,0.52c-0.09,0.19-0.13,0.39-0.13,0.61v2.99h-0.91c-0.3,0-0.6,0-0.91,0
		V12.63z"/>
	<path class="st3" d="M127.86,21.12c-0.82,0-1.54-0.13-2.16-0.4c-0.63-0.27-1.11-0.64-1.47-1.11s-0.53-1.01-0.53-1.61
		c0-0.61,0.18-1.15,0.53-1.62c0.35-0.47,0.84-0.84,1.47-1.1s1.35-0.4,2.16-0.4c0.81,0,1.53,0.13,2.15,0.4s1.1,0.64,1.46,1.1
		c0.35,0.47,0.53,1.01,0.53,1.62c0,0.6-0.18,1.14-0.53,1.61c-0.35,0.47-0.84,0.84-1.46,1.11C129.39,20.99,128.68,21.12,127.86,21.12
		z M127.86,19.56c0.42,0,0.81-0.07,1.16-0.2c0.35-0.13,0.63-0.31,0.84-0.55s0.31-0.51,0.3-0.82c0.01-0.31-0.09-0.58-0.3-0.82
		c-0.21-0.24-0.49-0.42-0.84-0.55c-0.35-0.13-0.74-0.2-1.16-0.2c-0.43,0-0.82,0.07-1.17,0.2c-0.35,0.13-0.63,0.32-0.84,0.55
		c-0.21,0.23-0.31,0.51-0.31,0.83c0,0.31,0.1,0.58,0.31,0.82s0.49,0.42,0.84,0.55C127.04,19.49,127.43,19.56,127.86,19.56z"/>
	<path class="st3" d="M138.34,21.13c-0.54,0-1.02-0.12-1.42-0.36c-0.4-0.24-0.71-0.59-0.93-1.06s-0.33-1.02-0.33-1.68V15h1.82v2.67
		c0,0.41,0.05,0.75,0.15,1.01c0.1,0.27,0.27,0.47,0.5,0.6c0.23,0.13,0.54,0.2,0.91,0.2c0.25,0,0.49-0.04,0.71-0.11
		c0.23-0.08,0.43-0.19,0.6-0.33s0.31-0.32,0.41-0.53c0.1-0.21,0.15-0.44,0.15-0.71V15h1.82v6.01h-1.71l-0.08-1.23l0.34-0.14
		c-0.1,0.23-0.28,0.47-0.54,0.7c-0.26,0.23-0.59,0.42-1,0.57C139.35,21.06,138.88,21.13,138.34,21.13z"/>
	<path class="st3" d="M150.03,21.12c-0.78,0-1.49-0.09-2.12-0.28s-1.15-0.48-1.54-0.87l1.11-1.01c0.28,0.25,0.64,0.45,1.09,0.61
		c0.45,0.15,0.96,0.23,1.53,0.23c0.17,0,0.33-0.01,0.49-0.02c0.16-0.01,0.31-0.04,0.45-0.08c0.14-0.04,0.25-0.1,0.33-0.16
		c0.08-0.07,0.12-0.15,0.12-0.25c0-0.16-0.13-0.28-0.4-0.35c-0.19-0.05-0.42-0.1-0.68-0.13c-0.26-0.03-0.52-0.07-0.76-0.1
		c-0.51-0.08-0.96-0.15-1.35-0.23c-0.39-0.08-0.73-0.2-1.01-0.37c-0.23-0.15-0.41-0.33-0.54-0.55c-0.13-0.22-0.2-0.48-0.2-0.81
		c0-0.29,0.09-0.56,0.26-0.79c0.17-0.23,0.41-0.43,0.71-0.59c0.3-0.16,0.65-0.28,1.05-0.37s0.82-0.12,1.26-0.12
		c0.4,0,0.81,0.03,1.23,0.1s0.82,0.16,1.2,0.29s0.71,0.31,0.99,0.53l-0.89,1.13c-0.2-0.14-0.45-0.26-0.75-0.37
		c-0.29-0.11-0.61-0.2-0.95-0.27c-0.34-0.07-0.69-0.1-1.04-0.1c-0.16,0-0.32,0.01-0.47,0.02c-0.16,0.01-0.29,0.04-0.42,0.07
		c-0.12,0.04-0.23,0.09-0.31,0.15c-0.08,0.06-0.12,0.14-0.12,0.23c0,0.05,0.02,0.1,0.06,0.15c0.04,0.05,0.09,0.09,0.16,0.13
		c0.15,0.09,0.37,0.16,0.65,0.21c0.28,0.05,0.59,0.1,0.92,0.14c0.63,0.08,1.16,0.19,1.59,0.32c0.43,0.13,0.78,0.28,1.04,0.45
		c0.2,0.14,0.35,0.29,0.45,0.47c0.09,0.18,0.14,0.38,0.14,0.62c0,0.41-0.14,0.76-0.41,1.05s-0.66,0.52-1.15,0.69
		C151.26,21.04,150.68,21.12,150.03,21.12z"/>
	<path class="st3" d="M160.01,21.12c-0.84,0-1.57-0.13-2.2-0.4c-0.63-0.27-1.12-0.64-1.47-1.1c-0.35-0.47-0.52-1-0.52-1.58
		c0-0.49,0.11-0.93,0.32-1.32c0.21-0.39,0.5-0.72,0.87-0.99c0.37-0.27,0.79-0.48,1.27-0.63s0.98-0.22,1.51-0.22
		c0.54,0,1.03,0.07,1.49,0.22c0.46,0.15,0.86,0.35,1.2,0.62c0.34,0.27,0.61,0.59,0.8,0.96c0.19,0.37,0.28,0.78,0.26,1.23l-0.01,0.55
		h-6.37l-0.26-1.13h5.16l-0.19,0.26v-0.23c-0.03-0.2-0.14-0.38-0.33-0.54s-0.44-0.28-0.74-0.37c-0.3-0.09-0.62-0.14-0.98-0.14
		c-0.41,0-0.79,0.05-1.13,0.16s-0.63,0.27-0.84,0.5c-0.21,0.23-0.32,0.53-0.32,0.91c0,0.32,0.12,0.62,0.35,0.88
		c0.23,0.26,0.55,0.47,0.97,0.62c0.42,0.15,0.91,0.23,1.48,0.23c0.57,0,1.04-0.06,1.39-0.19c0.35-0.12,0.62-0.23,0.79-0.32
		l0.77,1.16c-0.28,0.17-0.59,0.33-0.94,0.46c-0.35,0.13-0.72,0.23-1.11,0.3C160.83,21.09,160.42,21.12,160.01,21.12z"/>
	<path class="st3" d="M166.99,23.54l-0.63-0.75c0.4-0.2,0.72-0.4,0.97-0.61c0.25-0.21,0.37-0.4,0.37-0.58
		c0-0.13-0.05-0.24-0.14-0.33s-0.21-0.16-0.36-0.2c-0.18-0.08-0.35-0.18-0.51-0.32c-0.16-0.14-0.24-0.33-0.24-0.58
		c0-0.33,0.12-0.58,0.36-0.74s0.54-0.24,0.88-0.24c0.29,0,0.56,0.08,0.81,0.23c0.26,0.15,0.47,0.36,0.63,0.63
		c0.16,0.26,0.24,0.56,0.24,0.88c0,0.26-0.07,0.52-0.2,0.78c-0.14,0.26-0.32,0.51-0.54,0.75c-0.23,0.24-0.48,0.45-0.76,0.63
		C167.58,23.28,167.29,23.43,166.99,23.54z"/>
	<path class="st3" d="M178.91,21.01v-7.92h7.11v1.64h-5.24v4.64h5.35v1.64H178.91z M179.93,17.76V16.2h5.58v1.56H179.93z"/>
	<path class="st3" d="M190.13,15h1.71l0.07,1.68l-0.52,0.11c0.12-0.32,0.31-0.63,0.58-0.92c0.27-0.29,0.6-0.53,1.01-0.71
		c0.4-0.18,0.86-0.28,1.36-0.28c0.6,0,1.12,0.12,1.53,0.35c0.42,0.23,0.74,0.55,0.95,0.93c0.22,0.39,0.32,0.82,0.32,1.31v3.54h-1.81
		v-3.12c0-0.29-0.07-0.55-0.21-0.78c-0.14-0.22-0.33-0.4-0.57-0.52c-0.24-0.12-0.52-0.19-0.83-0.19c-0.29,0-0.54,0.05-0.76,0.15
		c-0.22,0.1-0.41,0.23-0.56,0.39c-0.15,0.15-0.27,0.32-0.35,0.5c-0.08,0.18-0.12,0.35-0.12,0.5v3.07h-0.91c-0.3,0-0.6,0-0.91,0V15z"
		/>
	<path class="st3" d="M204.12,21.13c-0.69,0-1.29-0.13-1.8-0.4c-0.51-0.26-0.9-0.63-1.17-1.11c-0.28-0.48-0.41-1.02-0.41-1.62
		c0-0.61,0.15-1.15,0.44-1.62c0.29-0.47,0.71-0.84,1.23-1.11s1.14-0.4,1.83-0.4c0.42,0,0.8,0.04,1.15,0.14s0.66,0.21,0.92,0.36
		c0.26,0.15,0.48,0.31,0.63,0.49c0.16,0.18,0.25,0.36,0.27,0.54l-0.43,0.1v-3.87h1.82v8.38h-1.69l-0.1-1.6l0.36,0.15
		c-0.02,0.18-0.12,0.37-0.29,0.55s-0.39,0.36-0.67,0.51c-0.28,0.15-0.6,0.27-0.96,0.37C204.91,21.08,204.53,21.13,204.12,21.13z
		 M204.69,19.56c0.44,0,0.82-0.07,1.14-0.2c0.32-0.13,0.57-0.31,0.75-0.55c0.17-0.23,0.26-0.5,0.26-0.8c0-0.31-0.09-0.58-0.26-0.81
		c-0.17-0.23-0.42-0.41-0.75-0.54c-0.32-0.13-0.71-0.2-1.14-0.2c-0.43,0-0.81,0.07-1.13,0.2c-0.32,0.13-0.57,0.31-0.75,0.54
		c-0.18,0.23-0.27,0.5-0.27,0.81c0,0.3,0.09,0.57,0.27,0.8c0.18,0.23,0.43,0.42,0.75,0.55C203.88,19.49,204.26,19.56,204.69,19.56z"
		/>
	<path class="st3" d="M222.95,21.12c-0.75,0-1.43-0.1-2.04-0.31c-0.61-0.21-1.14-0.5-1.58-0.87c-0.45-0.37-0.79-0.81-1.04-1.31
		c-0.25-0.5-0.37-1.04-0.37-1.62s0.12-1.12,0.37-1.62c0.25-0.5,0.59-0.93,1.04-1.31c0.45-0.37,0.98-0.66,1.58-0.87
		c0.61-0.21,1.28-0.31,2.02-0.31c0.73,0,1.4,0.1,2.01,0.31c0.61,0.21,1.14,0.5,1.58,0.87c0.45,0.37,0.79,0.81,1.04,1.31
		s0.37,1.04,0.37,1.62s-0.12,1.12-0.37,1.62s-0.59,0.93-1.04,1.31c-0.45,0.37-0.97,0.66-1.58,0.87
		C224.34,21.02,223.67,21.12,222.95,21.12z M222.94,19.31c0.45,0,0.85-0.06,1.23-0.18c0.37-0.12,0.7-0.28,0.97-0.49
		c0.27-0.21,0.48-0.45,0.63-0.73c0.15-0.28,0.22-0.58,0.22-0.91s-0.07-0.63-0.22-0.91c-0.15-0.28-0.36-0.52-0.63-0.73
		c-0.27-0.21-0.59-0.37-0.97-0.49c-0.37-0.12-0.78-0.17-1.23-0.17s-0.85,0.06-1.23,0.17c-0.37,0.12-0.7,0.28-0.97,0.49
		c-0.28,0.21-0.48,0.45-0.63,0.73c-0.14,0.28-0.21,0.58-0.21,0.91s0.07,0.63,0.21,0.91s0.35,0.52,0.63,0.73
		c0.28,0.21,0.6,0.37,0.97,0.49C222.08,19.25,222.49,19.31,222.94,19.31z"/>
	<path class="st3" d="M231.29,21.01v-7.92h1.92v7.92H231.29z M232.05,18.09v-1.61h5.59v1.61H232.05z M232.21,14.78v-1.7h5.9v1.7
		H232.21z"/>
	<path class="st3" d="M249.86,21.01v-6.23h-3.15v-1.7h8.27v1.7h-3.2v6.23H249.86z"/>
	<path class="st3" d="M258.45,12.63h1.78v4.04l-0.54,0.17c0.08-0.35,0.27-0.67,0.55-0.97c0.28-0.3,0.64-0.54,1.07-0.72
		c0.43-0.18,0.9-0.28,1.4-0.28c0.6,0,1.11,0.12,1.52,0.36c0.41,0.24,0.72,0.55,0.93,0.94c0.21,0.39,0.31,0.81,0.31,1.26v3.58h-1.81
		v-3.09c0-0.32-0.07-0.59-0.21-0.81c-0.14-0.23-0.33-0.4-0.57-0.53s-0.52-0.19-0.83-0.19c-0.26,0-0.51,0.05-0.72,0.14
		c-0.22,0.09-0.41,0.21-0.57,0.37c-0.16,0.15-0.28,0.33-0.37,0.52c-0.09,0.19-0.13,0.39-0.13,0.61v2.99h-0.91c-0.3,0-0.6,0-0.91,0
		V12.63z"/>
	<path class="st3" d="M273.24,21.12c-0.84,0-1.57-0.13-2.2-0.4c-0.63-0.27-1.12-0.64-1.47-1.1c-0.35-0.47-0.52-1-0.52-1.58
		c0-0.49,0.11-0.93,0.32-1.32c0.21-0.39,0.5-0.72,0.87-0.99c0.37-0.27,0.79-0.48,1.27-0.63c0.48-0.15,0.98-0.22,1.51-0.22
		c0.54,0,1.03,0.07,1.49,0.22c0.46,0.15,0.86,0.35,1.2,0.62c0.34,0.27,0.61,0.59,0.8,0.96c0.19,0.37,0.28,0.78,0.26,1.23l-0.01,0.55
		h-6.37l-0.26-1.13h5.16l-0.19,0.26v-0.23c-0.03-0.2-0.14-0.38-0.33-0.54s-0.44-0.28-0.74-0.37c-0.3-0.09-0.62-0.14-0.98-0.14
		c-0.41,0-0.79,0.05-1.13,0.16c-0.35,0.11-0.63,0.27-0.84,0.5s-0.32,0.53-0.32,0.91c0,0.32,0.11,0.62,0.35,0.88
		c0.23,0.26,0.55,0.47,0.97,0.62c0.42,0.15,0.91,0.23,1.48,0.23c0.57,0,1.04-0.06,1.39-0.19c0.35-0.12,0.62-0.23,0.79-0.32
		l0.77,1.16c-0.28,0.17-0.59,0.33-0.94,0.46c-0.35,0.13-0.72,0.23-1.11,0.3C274.06,21.09,273.66,21.12,273.24,21.12z"/>
	<path class="st3" d="M287.84,21.01l-2.77-7.92h2l1.34,3.86c0.05,0.15,0.11,0.33,0.18,0.54c0.06,0.21,0.13,0.43,0.19,0.66
		c0.06,0.23,0.12,0.45,0.17,0.66c0.05,0.21,0.08,0.38,0.11,0.53h-0.42c0.04-0.2,0.09-0.44,0.16-0.7c0.07-0.26,0.16-0.54,0.26-0.83
		c0.1-0.29,0.21-0.58,0.32-0.85l1.21-2.84h1.62l1.19,2.82c0.11,0.28,0.22,0.56,0.33,0.85s0.2,0.56,0.28,0.82
		c0.08,0.26,0.13,0.48,0.15,0.68l-0.39,0.03c0.02-0.12,0.04-0.26,0.07-0.42c0.03-0.16,0.07-0.33,0.11-0.51
		c0.04-0.18,0.09-0.36,0.14-0.54c0.05-0.18,0.1-0.35,0.15-0.52s0.1-0.31,0.15-0.44l1.53-3.8h1.91l-3.11,7.92h-1.47l-2.08-4.94
		l0.33,0.02l-2.03,4.91H287.84z"/>
	<path class="st3" d="M304,21.12c-0.82,0-1.54-0.13-2.16-0.4c-0.63-0.27-1.11-0.64-1.47-1.11s-0.53-1.01-0.53-1.61
		c0-0.61,0.18-1.15,0.53-1.62c0.35-0.47,0.84-0.84,1.47-1.1s1.35-0.4,2.16-0.4c0.81,0,1.53,0.13,2.15,0.4s1.1,0.64,1.46,1.1
		c0.35,0.47,0.53,1.01,0.53,1.62c0,0.6-0.18,1.14-0.53,1.61c-0.35,0.47-0.84,0.84-1.46,1.11C305.53,20.99,304.82,21.12,304,21.12z
		 M304,19.56c0.42,0,0.81-0.07,1.16-0.2c0.35-0.13,0.63-0.31,0.84-0.55s0.31-0.51,0.3-0.82c0.01-0.31-0.09-0.58-0.3-0.82
		c-0.21-0.24-0.49-0.42-0.84-0.55c-0.35-0.13-0.74-0.2-1.16-0.2c-0.43,0-0.82,0.07-1.17,0.2c-0.35,0.13-0.63,0.32-0.84,0.55
		c-0.21,0.23-0.31,0.51-0.31,0.83c0,0.31,0.1,0.58,0.31,0.82s0.49,0.42,0.84,0.55C303.18,19.49,303.57,19.56,304,19.56z"/>
	<path class="st3" d="M311.97,21.01V15h1.72l0.08,2.25l-0.57,0.01c0.12-0.45,0.32-0.85,0.61-1.21c0.29-0.36,0.63-0.65,1.02-0.86
		c0.39-0.21,0.8-0.32,1.23-0.32c0.28,0,0.55,0.03,0.82,0.09c0.27,0.06,0.49,0.14,0.66,0.25l-0.49,1.94
		c-0.16-0.11-0.38-0.2-0.65-0.27s-0.55-0.1-0.81-0.1c-0.29,0-0.56,0.04-0.79,0.14s-0.42,0.21-0.58,0.36
		c-0.15,0.15-0.27,0.32-0.34,0.5c-0.08,0.18-0.11,0.37-0.11,0.55v2.67H311.97z"/>
	<path class="st3" d="M321.26,21.01v-8.38h1.81v8.38H321.26z"/>
	<path class="st3" d="M329.99,21.13c-0.69,0-1.29-0.13-1.8-0.4s-0.9-0.63-1.17-1.11c-0.28-0.48-0.41-1.02-0.41-1.62
		c0-0.61,0.15-1.15,0.44-1.62c0.29-0.47,0.71-0.84,1.23-1.11s1.14-0.4,1.83-0.4c0.41,0,0.8,0.04,1.15,0.14
		c0.35,0.09,0.66,0.21,0.92,0.36c0.26,0.15,0.48,0.31,0.63,0.49c0.16,0.18,0.25,0.36,0.27,0.54l-0.43,0.1v-3.87h1.82v8.38h-1.69
		l-0.1-1.6l0.36,0.15c-0.02,0.18-0.12,0.37-0.29,0.55s-0.39,0.36-0.67,0.51c-0.28,0.15-0.6,0.27-0.96,0.37
		C330.78,21.08,330.4,21.13,329.99,21.13z M330.56,19.56c0.44,0,0.82-0.07,1.14-0.2c0.32-0.13,0.57-0.31,0.75-0.55
		s0.26-0.5,0.26-0.8c0-0.31-0.09-0.58-0.26-0.81c-0.17-0.23-0.42-0.41-0.75-0.54c-0.32-0.13-0.71-0.2-1.14-0.2
		c-0.43,0-0.81,0.07-1.13,0.2c-0.32,0.13-0.57,0.31-0.75,0.54c-0.18,0.23-0.27,0.5-0.27,0.81c0,0.3,0.09,0.57,0.27,0.8
		s0.43,0.42,0.75,0.55C329.75,19.49,330.13,19.56,330.56,19.56z"/>
</g>
<polygon class="st4" points="1668.16,41.72 1696.55,41.72 1696.55,70.12 "/>
<polygon class="st4" points="36.6,315.84 8.21,315.84 8.21,287.45 "/>
<rect x="1697.83" y="8.03" class="st5" width="10.52" height="10.52"/>
<rect x="1679.42" y="8.03" class="st5" width="10.52" height="10.52"/>
<rect x="1661" y="8.03" class="st5" width="10.52" height="10.52"/>
</svg>
